<?xml version="1.0" encoding="UTF-8"?>
<svg xmlns="http://www.w3.org/2000/svg" version="1.1" viewBox="0 0 16 11.8">
  <defs>
    <style>
      .cls-1 {
        fill: #faeade;
      }

      .cls-2 {
        fill: #231f20;
      }

      .cls-3 {
        fill: #fefefe;
      }
    </style>
  </defs>
  <!-- Generator: Adobe Illustrator 28.6.0, SVG Export Plug-In . SVG Version: 1.2.0 Build 709)  -->
  <g>
    <g id="Layer_1">
      <path class="cls-3" d="M11.4,11.1H0V.3h16v10.9h-4.6M5.3,7.3s0,0,0,0c0,0-.1.1,0,.3,0,.2,0,.3.1.5.1.5.3,1,.5,1.5,0,0,0,.2.1.2.1,0,.2.2.2.4,0,0,0,.1,0,.2.1,0,.2.1.4,0,.1,0,.1,0,0-.2,0-.1-.1-.2-.2-.3,0-.1-.2-.2-.3-.3-.2-.4-.3-.9-.5-1.4,0-.2,0-.3.2-.5.2-.2.5-.3.7-.4.3-.1.6-.3.9-.4.1,0,.2-.2.3-.3,0,0,0,0,.1,0,.4,0,.7,0,1.1,0,.2,0,.3,0,.5,0,0,0,0,0,0,0,0,.4,0,.8,0,1.2,0,.1,0,.3,0,.4,0,.4-.2.9-.3,1.3,0,.1,0,.3,0,.4,0,0,.1.2.1.3,0,0,0,0,0,0,.1,0,.3.1.4.1.1,0,.1,0,0-.2,0,0-.1-.2-.2-.2-.1-.1-.2-.3-.2-.4,0-.5.1-.9.2-1.4,0-.4.1-.8.2-1.2,0-.1,0-.3,0-.4.3.1.7.3,1,.4,0,0,.1,0,.2,0,.1,0,.2.2.2.3,0,.1,0,.3,0,.4,0,.2,0,.5-.1.7,0,0,0,.1-.1.2-.1.1-.3.2-.4.3,0,0,0,.1-.1.2.3,0,.5,0,.7-.2,0,0,.2-.2.2-.3,0-.4.1-.8.2-1.2,0-.3,0-.5-.2-.7,0,0,0,0,0,0-.1-.1-.3-.3-.4-.4,0,0,0-.1,0-.2.2-.1.3-.3.4-.5,0,0,0,0,0-.1,0,0,0-.1,0-.2,0,0,0-.1,0-.2,0,0,0-.1.1-.2,0-.2.1-.5.2-.7,0-.2.1-.4.2-.6,0-.1,0-.2.2-.2.2,0,.4,0,.6,0,.2,0,.3,0,.5,0,.1,0,.2-.2.2-.3,0-.1,0-.2-.2-.2-.2,0-.4-.1-.5-.3-.2-.3-.4-.5-.8-.5-.2,0-.2,0-.2-.2,0-.1,0-.3-.2-.4-.1,0-.2-.2-.4-.2-.2.1-.3.3-.2.6,0,.2.2.4.4.5,0,.3-.2.5-.3.8,0,.2-.1.4-.2.6-.1.3-.3.4-.6.4,0,0,0,0,0,0-.4,0-.7.1-1,.3-.1,0-.2,0-.3.1-.3,0-.6,0-1,0-.5,0-.9,0-1.4,0,0,0-.1,0-.1-.1,0-.2,0-.4,0-.5,0-.2,0-.5,0-.7,0-.2,0-.4,0-.5,0,0,0-.1,0-.2-.1.1-.2.2-.3.3-.3.4-.5.7-.5,1.2,0,.2,0,.4.1.6,0,0,0,0,.1.1,0,0,0,0,0,0-.2.1-.3.3-.4.6,0,.2,0,.5,0,.7,0,.2,0,.4,0,.6,0,0,0,0,0,.1-.2.2-.3.3-.6.3-.1,0-.2,0-.3,0-.1,0-.3,0-.3.2,0,0,0,.2-.1.2-.2.6-.5,1.1-.7,1.7,0,0,0,.2-.2.2-.2.1-.3.2-.5.3,0,0,0,.1-.1.2,0,0,0,.1,0,.1.3,0,.5,0,.7-.2.1,0,.3-.2.3-.4,0-.2.1-.4.2-.6.1-.3.3-.6.5-.8.3-.2.6-.4,1-.5,0,0,0,0,0,0Z"/>
      <path class="cls-2" d="M5.3,7.2c-.4,0-.7.3-1,.5-.3.2-.4.5-.5.8,0,.2-.1.4-.2.6,0,.2-.2.3-.3.4-.2.1-.4.2-.7.2,0,0-.1,0,0-.1,0,0,0-.1.1-.2.1-.1.3-.2.5-.3,0,0,.1-.1.2-.2.2-.6.5-1.1.7-1.7,0,0,0-.2.1-.2,0-.1.2-.2.3-.2.1,0,.2,0,.3,0,.2,0,.4-.2.6-.3,0,0,0,0,0-.1,0-.2,0-.4,0-.6,0-.2,0-.5,0-.7,0-.3.2-.5.4-.6,0,0,0,0,0,0,0,0,0,0-.1-.1-.1-.2-.2-.4-.1-.6,0-.5.2-.8.5-1.2,0,0,.2-.2.3-.3,0,0,0,.2,0,.2,0,.2,0,.4,0,.5,0,.2,0,.5,0,.7,0,.2,0,.4,0,.5,0,0,0,.1.1.1.5,0,.9,0,1.4,0,.3,0,.6,0,1,0,.1,0,.2,0,.3-.1.3-.1.7-.2,1-.3,0,0,0,0,0,0,.3,0,.5-.1.6-.4,0-.2.2-.4.2-.6,0-.3.2-.5.3-.8-.2,0-.3-.3-.4-.5,0-.2,0-.4.2-.6.1,0,.2.2.4.2.1,0,.1.3.2.4,0,.2,0,.2.2.2.4,0,.6.2.8.5.1.2.3.3.5.3.2,0,.2,0,.2.2,0,.1,0,.2-.2.3-.1,0-.3,0-.5,0-.2,0-.4,0-.6,0-.2,0-.2,0-.2.2,0,.2-.1.4-.2.6,0,.2-.1.5-.2.7,0,0,0,.1-.1.2,0,0,0,.1,0,.2,0,0,0,.1,0,.2,0,0,0,0,0,.1,0,.2-.2.4-.4.5-.1,0-.1,0,0,.2.1.1.3.3.4.4,0,0,0,0,0,0,.2.2.3.4.2.7,0,.4-.1.8-.2,1.2,0,.1-.1.2-.2.3-.2.2-.4.3-.7.2,0,0,0-.1.1-.2.1-.1.3-.2.4-.3,0,0,.1-.1.1-.2,0-.2,0-.5.1-.7,0-.1,0-.3,0-.4,0-.1,0-.2-.2-.3,0,0-.1,0-.2,0-.3-.1-.6-.3-1-.4,0,.1,0,.2,0,.4,0,.4-.1.8-.2,1.2,0,.5-.2.9-.2,1.4,0,.2,0,.3.2.4,0,0,.1.2.2.2,0,0,0,.2,0,.2-.2,0-.3,0-.4-.1,0,0,0,0,0,0,0-.1,0-.2-.1-.3,0-.1-.1-.2,0-.4,0-.4.2-.9.3-1.3,0-.1,0-.3,0-.4,0-.4,0-.8,0-1.2,0,0,0,0,0,0-.2,0-.3,0-.5,0-.4,0-.7,0-1.1,0,0,0-.1,0-.1,0,0,.1-.1.2-.3.3-.3.2-.6.3-.9.4-.3.1-.5.2-.7.4-.1.1-.2.3-.2.5.1.5.3.9.5,1.4,0,.1.2.2.3.3,0,.1.1.2.2.3,0,0,0,.2,0,.2-.1,0-.3,0-.4,0,0,0,0,0,0-.2,0-.1,0-.3-.2-.4,0,0-.1-.1-.1-.2-.2-.5-.3-1-.5-1.5,0-.2,0-.3-.1-.5,0-.1,0-.2,0-.3,0,0,0,0,0,0,0,0,.1,0,.2,0,0,0,0,0,0,0,0,0-.1,0-.2,0Z"/>
      <path class="cls-1" d="M5.3,7.2c0,0,.1,0,.2,0,0,0,0,0,0,0,0,0-.1,0-.2,0,0,0,0,0,0,0Z"/>
    </g>
  </g>
</svg>