<?xml version="1.0" encoding="UTF-8"?>
<svg xmlns="http://www.w3.org/2000/svg" version="1.1" viewBox="0 0 7.4 11.4">
  <defs>
    <style>
      .cls-1 {
        fill: #060606;
      }

      .cls-2 {
        fill: #020202;
      }
    </style>
  </defs>
  <!-- Generator: Adobe Illustrator 28.6.0, SVG Export Plug-In . SVG Version: 1.2.0 Build 709)  -->
  <g>
    <g id="Layer_1">
      <path class="cls-2" d="M2,3.8c.2-.1.5-.1.8,0,.2,0,.4,0,.7,0,.2,0,.3,0,.5,0,.2,0,.5,0,.7,0,0,0,0,0,.1,0,.1,0,.2,0,.2-.1,0-.2.1-.4.2-.7,0-.4,0-.8.1-1.1,0-.3-.1-.5-.4-.6-.3-.1-.5-.4-.6-.7,0-.2,0-.4,0-.6.5,0,.9.4,1,1,.2,0,.4,0,.6,0,.2,0,.4,0,.5,0,.1,0,.2,0,.3.2.1.1.2.3.4.4,0,0,.1,0,.2.1,0,0,0,0,0,0,0,0,0,.1,0,.2-.1.2-.3.3-.5.3-.2,0-.3,0-.5,0-.1,0-.3,0-.4,0,0,0,0,0,0,0,.1,0,.2,0,.3,0,0,.2-.1.5-.2.7-.1.6-.3,1.2-.3,1.8,0,.1,0,.3,0,.4,0,.3,0,.6-.2.9,0,0,0,0,0,0,0,.3,0,.7,0,1,0,.2,0,.3,0,.5,0,0,0,.2,0,.3,0,.2,0,.4,0,.6,0,.5-.1,1,0,1.5,0,.2,0,.5.3.7,0,0,0,0,0,.1,0,0,0,0-.1,0-.1,0-.2,0-.4,0,0,0,0,0,0,0,0,0,0-.2,0-.3,0,0,0-.1,0-.1-.1,0-.1-.2-.1-.3,0-.2,0-.4.1-.5,0-.4,0-.8,0-1.1,0-.3,0-.7,0-1,0-.4-.1-.7-.3-1.1,0,0,0,0,0-.1,0,0,0-.2,0-.3,0,.1,0,.2-.1.3,0,0,0,.1,0,.2,0,.4,0,.7,0,1.1,0,.2,0,.4,0,.6,0,.2,0,.3,0,.5,0,.4,0,.9,0,1.3,0,0,0,.1,0,.2,0,.1,0,.2,0,.4,0,0,0,0,0,0,.1.1.2.3.2.5,0,0,0,0,0,0-.1,0-.3,0-.4,0,0,0-.1,0-.2-.2,0,0,0-.2,0-.2,0,0,0-.1,0-.2,0,0,0-.1,0-.2.1-.4,0-.7,0-1.1,0-.2,0-.4,0-.5,0,0,0-.2,0-.3,0-.4,0-.9-.2-1.3,0-.3-.1-.5-.2-.8,0,0,0,0,0,0-.1,0-.2,0-.3,0-.1,0-.2,0-.3.1-.1.2-.2.3-.3.5-.1.2-.2.3-.3.5,0,0,0,.2,0,.2,0,.3,0,.6,0,.9,0,.3,0,.5,0,.8,0,.1,0,.2.1.3.1.1.2.3.2.4-.1,0-.3,0-.4,0,0,0,0,0,0,0,0,0,0-.2-.1-.3,0,0-.1-.1-.2-.2,0,0,0,0,0,0,.1-.5,0-1,0-1.5,0-.2,0-.4-.1-.5,0,0,0-.2,0-.2,0-.1,0-.2.1-.3.1,0,.2-.2.2-.3,0-.2.1-.4.2-.5,0,0,0,0,0,0,0,0,.1,0,.2,0-.2-.1-.4-.2-.5-.4,0,.4-.1.7-.3,1,0,.2-.2.4-.3.6,0,0,0,0,0,0,0,.4-.1.7-.2,1.1,0,.2,0,.5,0,.7,0,0,0,.1,0,.2,0,.1,0,.2.1.4.1.2.1.4.1.6h-.5s0,0,0,0c0,0,0-.2,0-.3-.1-.3-.1-.6,0-.9,0-.5,0-.9,0-1.3,0,0,0-.1,0-.2,0-.2,0-.3,0-.5,0-.2.2-.3.3-.5.1-.2.1-.4,0-.7-.1-.3-.1-.7,0-1,0,0,0,0,0,0,0,0,0,0,0,0-.1.2-.3.3-.5.3-.2,0-.3,0-.5,0,0,0-.1,0-.1-.2,0,0,0,0,0,0,0,0,0,0,.1,0,0,0,0,0,0,0,0,.1.1.1.2.1.1,0,.2,0,.3-.1.2-.1.3-.3.4-.5.2-.2.4-.5.6-.7,0,0,.2-.1.3-.2Z"/>
      <path class="cls-1" d="M6.6.4c0,0,.1,0,.2,0,0,0,0,0,0,.1,0,.1,0,.3-.1.4,0,0,0,.1,0,.2,0,0,0,0-.1,0-.1,0-.3,0-.4-.1,0-.2.3-.4.5-.6Z"/>
    </g>
  </g>
</svg>