<svg version="1.1" id="Layer_1" xmlns="http://www.w3.org/2000/svg" xmlns:xlink="http://www.w3.org/1999/xlink" x="0px" y="0px"
	 width="100%" viewBox="0 0 1024 848" enable-background="new 0 0 1024 848" xml:space="preserve">
<path fill="#000000" opacity="1.000000" stroke="none" 
	d="
M617.111206,724.012146 
	C618.947205,740.280640 623.025024,755.157654 634.041321,767.399597 
	C636.152588,769.745850 639.636353,772.459656 637.926697,775.945007 
	C636.364197,779.130371 632.259583,777.893066 629.218994,778.089905 
	C622.905273,778.498474 616.547668,778.377625 610.260315,779.000671 
	C605.069519,779.515137 602.513062,777.568787 601.687744,772.516357 
	C600.884033,767.596191 599.534363,762.764465 598.747864,757.842285 
	C598.053406,753.495667 596.423279,749.964783 592.583313,747.514526 
	C587.601440,744.335815 585.766052,739.876282 586.522827,733.846741 
	C588.515137,717.974548 591.948547,702.363770 594.930969,686.684998 
	C598.796387,666.363953 597.224121,646.318909 594.300110,626.106995 
	C591.225708,604.855103 589.086914,583.550232 590.439148,561.928894 
	C591.905640,538.481140 584.448059,516.909424 573.808289,496.385162 
	C571.308228,491.562500 568.630981,487.110779 570.627747,481.415955 
	C570.968140,480.445190 571.035217,479.100098 569.760254,477.886169 
	C562.770813,485.922424 558.215942,494.731201 557.278625,505.623474 
	C554.386536,539.234070 553.858643,572.792908 557.986877,606.334961 
	C559.131714,615.636841 558.978821,624.912354 558.134827,634.239380 
	C556.407166,653.333130 555.877441,672.486145 556.298767,691.648193 
	C556.642578,707.288330 556.962952,722.932983 563.137634,737.784363 
	C565.036438,742.351257 566.033691,747.344788 566.410156,752.366821 
	C566.590332,754.770020 567.553040,756.832153 568.959534,758.771301 
	C574.809509,766.836731 578.216003,776.034973 581.387024,785.372925 
	C582.747314,789.378723 581.391235,791.114014 577.485779,791.251648 
	C569.491028,791.533264 561.479248,791.837708 553.579468,790.155396 
	C546.643921,788.678467 543.164001,784.859314 542.735901,777.747681 
	C542.436462,772.773621 542.636047,767.765320 542.715759,762.773987 
	C542.781006,758.682922 541.484009,755.416382 538.158569,752.768372 
	C534.662109,749.984192 531.715698,746.453552 533.402222,741.586670 
	C537.772522,728.974976 538.752563,715.863098 539.262756,702.730347 
	C539.999390,683.767944 541.840210,664.539551 537.377319,645.979248 
	C534.118347,632.425842 533.415771,619.026733 533.886841,605.390686 
	C534.604858,584.603760 529.421387,564.761230 524.607422,544.870117 
	C520.063538,526.095215 514.557068,507.579773 508.790680,489.140808 
	C507.733429,485.760162 505.934174,483.839386 502.603088,482.737915 
	C495.138916,480.269714 487.670868,478.120636 479.691620,478.230774 
	C474.043701,478.308746 469.336151,480.252655 465.389465,484.278015 
	C458.209381,491.601288 452.972626,500.334869 447.416443,508.837677 
	C438.948883,521.795837 431.888458,535.630371 422.369202,547.956421 
	C418.371216,553.133179 418.693634,560.029419 418.465546,566.276855 
	C417.667938,588.123718 419.615021,609.860229 421.896149,631.563416 
	C423.339386,645.294617 424.695343,659.036621 426.321167,672.746460 
	C427.161469,679.832092 430.155304,685.971558 434.721039,691.626587 
	C441.275421,699.744629 445.288208,709.250488 447.939056,719.408142 
	C444.544647,721.796509 440.937225,720.807861 437.567902,720.809509 
	C431.919250,720.812378 425.587097,722.647827 420.797546,720.132507 
	C415.910828,717.566101 416.743591,710.440613 414.486115,705.536316 
	C411.060486,698.094421 407.342834,691.180298 398.427673,689.064880 
	C395.414154,688.349792 394.868927,685.896423 395.549286,683.099304 
	C400.769836,661.635681 400.023773,639.765503 399.594391,617.976807 
	C399.150818,595.469482 397.035126,573.126587 390.550720,551.378052 
	C388.540619,544.636169 387.932465,537.640808 389.739777,530.647278 
	C390.671753,527.040955 391.860138,523.302856 394.819336,521.079773 
	C405.859528,512.786194 410.563232,500.686920 414.979584,488.422791 
	C417.743103,480.748474 419.855499,472.856506 421.583099,464.873260 
	C422.636536,460.005127 422.644684,460.006897 427.863037,457.835754 
	C420.085144,452.274872 412.249512,447.524506 405.830811,439.222992 
	C403.520264,445.598541 404.005005,450.649109 402.983063,455.410767 
	C398.144989,477.952454 388.649841,498.650818 378.195404,518.984741 
	C376.596466,522.094666 375.211365,525.396484 373.133728,528.163696 
	C365.422333,538.434631 364.836212,550.745850 362.832245,562.658264 
	C358.800781,586.622620 354.144806,610.561401 355.244049,635.020264 
	C355.856079,648.638794 357.366699,662.220764 358.624817,675.805115 
	C359.477692,685.013611 364.998993,692.529541 368.113922,700.923218 
	C371.392426,709.757568 372.703094,718.944763 373.262848,728.299683 
	C373.502441,732.304565 372.099945,734.140503 367.904022,734.030945 
	C361.076050,733.852661 354.238953,733.908936 347.407898,734.012024 
	C344.062744,734.062500 342.494324,732.827576 342.696625,729.309631 
	C343.085175,722.554382 341.825928,715.951233 339.423767,709.723755 
	C332.540131,691.878296 332.627045,673.440979 335.051636,655.007874 
	C338.281952,630.449158 337.151642,606.203430 332.422607,581.979248 
	C330.639679,572.846252 328.417542,563.805847 327.438049,554.488342 
	C326.521942,545.773743 328.458191,538.035156 332.763489,530.612488 
	C340.026062,518.091187 348.521240,506.238342 353.661713,492.556915 
	C357.430023,482.527679 359.423157,472.310547 355.641998,461.832397 
	C348.621216,442.376617 347.158234,422.219818 347.670380,401.774323 
	C347.748779,398.644531 348.185577,395.471130 347.360535,392.286560 
	C344.707581,391.670624 343.872009,393.974945 342.644318,395.273041 
	C338.165283,400.008850 333.564270,404.561493 327.988678,408.034210 
	C318.182831,414.141846 307.355011,413.984619 296.493439,412.947876 
	C291.722015,412.492401 286.837250,412.400238 282.223999,410.696838 
	C277.584656,408.983856 274.460114,406.076508 274.535248,400.825928 
	C274.577484,397.872864 274.360077,394.368378 277.842804,393.129242 
	C281.627014,391.782867 285.661896,392.747925 287.630188,396.142303 
	C290.537476,401.156006 293.492249,405.150208 299.938416,405.440033 
	C306.917511,405.753815 313.064331,403.703369 318.795074,400.027924 
	C330.354126,392.614563 338.922516,382.162292 347.392609,371.635986 
	C358.149078,358.268250 368.578918,344.624969 378.926483,330.959534 
	C396.949890,307.157104 421.064026,300.441742 449.183533,303.297699 
	C465.910278,304.996521 482.585632,307.212219 499.320251,308.818726 
	C508.817932,309.730499 518.204895,308.762115 527.486206,306.026825 
	C542.686462,301.547058 558.112549,302.587494 573.536987,305.098145 
	C589.853210,307.753906 591.074707,306.932800 595.824951,291.223785 
	C601.435181,272.670624 603.881226,253.507523 606.649292,234.416519 
	C608.894653,218.930801 610.022217,203.320343 611.507385,187.748962 
	C613.278687,169.176605 605.486938,155.409027 588.453369,147.521103 
	C568.197998,138.141144 554.101562,123.571518 550.329285,100.834328 
	C548.483032,89.706047 549.450989,78.619148 552.497559,67.703423 
	C553.571899,63.853970 555.829102,63.400726 559.269165,64.007957 
	C591.907593,69.769188 613.500916,91.224632 619.308228,123.934715 
	C619.783203,126.610420 621.084900,127.472717 623.606873,127.733070 
	C642.152588,129.647552 660.613647,132.271301 679.111267,134.546631 
	C695.524231,136.565536 709.052673,142.428009 719.310852,155.768082 
	C724.470947,162.478333 730.572876,168.481293 736.430115,174.631485 
	C739.526184,177.882385 742.888672,181.044846 747.396240,182.225586 
	C751.568359,183.318436 752.189026,186.225464 751.200684,189.537781 
	C748.185303,199.643402 742.497864,208.223190 735.086975,215.614777 
	C729.894714,220.793488 722.802551,220.435837 716.272217,220.911789 
	C704.627502,221.760498 692.981689,221.091446 681.360657,219.758072 
	C673.770996,218.887238 666.125610,218.794281 657.663757,220.740082 
	C663.133911,223.479416 668.754517,222.396011 673.875793,224.778244 
	C670.485168,234.795624 667.711853,244.682449 665.272888,254.668854 
	C656.222107,291.727142 648.755493,329.091675 643.249939,366.843109 
	C641.158813,381.181519 638.913452,395.553986 639.462280,410.069550 
	C639.814392,419.383728 640.811646,428.625641 639.480530,437.956329 
	C637.879456,449.179901 634.153564,459.627289 628.400391,469.303070 
	C626.244263,472.929260 625.523315,476.234558 626.070740,480.521210 
	C628.530884,499.787354 627.432495,519.089417 625.727295,538.362854 
	C624.801697,548.823669 623.137939,559.135132 620.468994,569.324829 
	C618.357483,577.386230 619.819519,585.564758 621.167358,593.612488 
	C623.347717,606.631287 621.326599,619.394348 619.926880,632.338135 
	C616.650146,662.638855 614.402100,693.043518 617.111206,724.012146 
z"/>
<path fill="#000000" opacity="1.000000" stroke="none" 
	d="
M697.017456,89.850586 
	C700.986023,88.580681 704.441162,86.779236 708.413696,87.089790 
	C710.342957,90.333565 708.712402,93.402275 708.228516,96.403648 
	C706.472534,107.296021 703.729492,117.937050 698.526062,127.744881 
	C693.995483,136.284576 693.100159,136.513229 684.060608,133.647141 
	C678.188110,131.785172 672.286987,129.973206 666.145142,129.283676 
	C662.312744,128.853424 661.244080,127.355278 662.880066,123.700081 
	C669.846985,108.134026 680.820435,96.641098 697.017456,89.850586 
z"/>
</svg>