<svg version="1.1" id="Layer_1" xmlns="http://www.w3.org/2000/svg" xmlns:xlink="http://www.w3.org/1999/xlink" x="0px" y="0px"
	 width="100%" viewBox="0 0 480 352" enable-background="new 0 0 480 352" xml:space="preserve">
<path fill="#000000" opacity="1.000000" stroke="none" 
	d="
M158.298981,132.276733 
	C160.234970,129.754333 159.772812,127.840248 158.063324,125.716103 
	C151.127350,117.097679 143.110229,115.138237 133.303116,120.054543 
	C125.389320,124.021713 117.793289,128.554871 111.248199,134.576767 
	C108.538895,137.069504 105.292572,137.463623 102.020470,137.804092 
	C96.557251,138.372574 91.079994,138.738495 85.713997,140.035278 
	C84.263824,140.385742 82.653023,140.576050 81.570656,139.154755 
	C80.455879,137.690887 81.349480,136.275101 81.972542,134.943161 
	C82.899681,132.961151 83.950500,130.633041 86.181770,130.267502 
	C91.711578,129.361603 96.116005,125.129608 102.129494,125.473213 
	C105.351929,125.657333 108.342865,123.470276 110.015511,120.788597 
	C112.162071,117.347130 115.267609,116.315681 118.785217,115.884933 
	C122.574181,115.420952 125.848831,113.956085 128.659164,111.472801 
	C135.084427,105.795280 143.144592,102.666641 150.023300,97.668358 
	C153.232086,95.336761 156.487244,97.093536 159.071259,99.463173 
	C161.891357,102.049316 164.408951,104.963333 167.198898,107.584923 
	C169.862656,110.087936 172.160492,110.632095 174.040100,106.425400 
	C176.372665,101.204895 179.543976,96.759460 186.399567,97.634323 
	C187.643036,97.792999 188.511429,96.777519 189.369461,95.987160 
	C196.772751,89.167862 205.727081,86.545967 215.541336,86.745537 
	C219.604492,86.828156 222.297119,85.616966 224.661057,82.151657 
	C230.727127,73.259399 239.660233,67.420494 248.010986,60.918507 
	C253.608459,56.560253 260.579132,54.654778 265.897339,49.744370 
	C268.008301,47.795269 271.927185,47.804241 275.612244,46.753727 
	C276.596924,52.782925 276.196259,57.893288 271.826599,62.151653 
	C262.101501,71.629059 250.695999,78.907127 239.648132,86.637169 
	C231.457047,92.368340 230.598877,96.458641 237.887238,103.121033 
	C249.406998,113.651390 257.436737,127.139542 268.515472,138.031769 
	C279.276367,148.611511 291.382050,157.410034 303.724030,165.930740 
	C308.864044,169.479324 312.534363,168.688995 316.075562,163.617615 
	C322.228973,154.805115 323.834442,145.046112 321.894501,134.567963 
	C321.579865,132.868530 320.637939,131.964264 319.239624,131.237869 
	C310.469788,126.682137 306.693146,119.184799 306.741180,109.579422 
	C306.754150,106.985306 305.784790,104.361244 306.820618,101.287491 
	C311.803925,103.115746 315.388611,106.601707 319.063568,109.786972 
	C322.955017,113.159874 326.498962,116.942261 330.106018,120.632477 
	C334.130646,124.749908 336.019318,124.814240 339.890594,120.717331 
	C345.880646,114.378143 354.211670,111.981758 362.187286,106.571480 
	C361.861725,115.562943 355.783508,120.724358 353.417267,127.858879 
	C358.177521,130.321396 361.249847,133.932526 363.278534,139.039856 
	C364.911469,143.150879 369.479980,145.413422 373.229309,147.893616 
	C376.489685,150.050369 379.346649,152.417236 377.813904,156.777832 
	C376.193573,161.387665 372.018524,162.232162 367.964111,161.738785 
	C362.458130,161.068787 356.982086,161.518082 351.499481,161.295914 
	C349.824585,161.228043 348.040955,161.214417 347.425293,163.316635 
	C345.697784,169.215286 342.099457,174.396240 341.194550,180.652847 
	C340.331482,186.620071 337.897797,192.169281 335.319458,197.592560 
	C332.426025,203.678528 331.426147,210.301437 329.617096,216.696503 
	C328.877319,219.311630 329.734894,220.774765 332.283600,221.610168 
	C339.203918,223.878464 344.285706,228.316620 348.395447,234.364899 
	C352.574097,240.514587 358.735657,244.819763 365.026276,248.549591 
	C371.337250,252.291473 375.133636,257.515106 377.188110,264.327118 
	C378.388428,268.306976 379.588135,272.290680 380.942566,276.219452 
	C382.909882,281.925903 381.700043,283.505920 374.298096,282.725433 
	C385.179138,289.810333 388.822235,301.956726 398.562408,308.757629 
	C400.053864,309.799011 401.913055,311.539490 400.498474,313.823578 
	C399.190186,315.936035 396.929382,315.976044 394.685486,315.650482 
	C392.292297,315.303253 390.373627,314.108246 388.507904,312.610504 
	C381.537750,307.015106 376.057312,300.029633 370.889709,292.909668 
	C357.003906,273.777649 338.674164,259.830505 319.073578,247.261520 
	C313.935333,243.966599 307.974518,241.633545 305.419403,235.353088 
	C304.887756,234.046341 303.543701,234.169693 302.396790,234.037354 
	C300.245941,233.789169 298.081879,233.617020 295.949188,233.259079 
	C292.223358,232.633789 288.127106,231.485504 287.026184,227.755447 
	C285.600983,222.926773 282.230072,222.238861 278.316711,221.238205 
	C270.323517,219.194336 263.060852,215.417557 256.385315,210.639053 
	C242.426376,200.646957 230.298401,188.869843 221.620682,173.866547 
	C216.972610,165.830322 211.170166,158.814484 203.540833,153.442123 
	C198.903458,150.176620 194.180817,147.367767 188.198898,146.759247 
	C181.425873,146.070236 175.525940,142.709030 170.353134,138.356873 
	C167.593307,136.034866 165.904938,136.500122 163.935867,139.294067 
	C161.150620,143.246109 158.323959,147.150253 156.005264,151.408081 
	C152.562103,157.730713 148.025955,162.954193 140.874954,165.142960 
	C135.565430,166.768097 129.605270,166.784653 126.310310,172.507202 
	C122.694778,167.462830 124.937668,160.457306 130.422241,157.125885 
	C132.123230,156.092682 133.917114,155.116165 135.793167,154.483292 
	C146.787369,150.774445 152.032608,141.270264 158.298981,132.276733 
M358.452667,255.055862 
	C352.115143,248.753494 346.604187,241.345566 336.795166,239.434525 
	C351.282318,249.238342 356.743195,266.724365 369.898376,277.641907 
	C365.720612,270.489471 366.044250,261.143677 358.452667,255.055862 
z"/>
</svg>