<svg version="1.1" id="Layer_1" xmlns="http://www.w3.org/2000/svg" xmlns:xlink="http://www.w3.org/1999/xlink" x="0px" y="0px"
	 width="100%" viewBox="0 0 800 800" enable-background="new 0 0 800 800" xml:space="preserve">
<path fill="#000000" opacity="1.000000" stroke="none" 
	d="
M198.752777,703.972168 
	C201.898560,691.310364 205.017105,679.070557 208.031525,666.805176 
	C209.721848,659.927490 208.378876,652.865723 209.115799,645.902588 
	C210.100922,636.594177 213.446182,627.803101 214.713272,618.580261 
	C216.588470,604.931152 218.021851,591.211060 220.287292,577.628601 
	C223.054871,561.035400 229.232178,545.282654 233.161377,528.955383 
	C234.288483,524.271912 235.219894,520.145203 231.609711,515.932861 
	C229.136002,513.046448 228.797440,508.891144 229.944870,505.410950 
	C232.359619,498.087036 234.754990,491.045837 241.216980,485.423553 
	C251.109879,476.816193 260.149597,467.110168 268.770508,457.191650 
	C277.631195,446.997192 282.208099,434.687531 282.652985,421.067444 
	C282.892914,413.720795 280.296021,406.987335 277.278625,400.480011 
	C275.381927,396.389618 272.852478,396.408508 270.394257,400.154053 
	C268.750458,402.658630 267.242096,405.266754 265.430542,407.643646 
	C261.276489,413.094055 256.141083,416.143829 249.036514,417.785675 
	C239.706131,419.941833 230.508682,422.898346 221.059509,424.800507 
	C218.937134,425.227783 216.954407,425.475800 214.736557,424.990997 
	C215.474075,421.997192 217.970520,421.689178 219.536087,420.353088 
	C220.760376,419.308167 222.613159,418.573059 222.030548,416.473206 
	C221.462601,414.426178 219.718628,413.625946 217.814590,413.517517 
	C214.657257,413.337708 211.483002,413.471588 208.322067,413.332581 
	C206.611526,413.257355 204.338959,413.975891 203.709396,411.507568 
	C203.195862,409.494080 204.949646,408.535583 206.331360,407.683594 
	C210.225510,405.282501 213.195374,402.422363 212.809875,397.324829 
	C212.661301,395.360413 214.280060,395.057526 215.788071,394.630432 
	C219.198120,393.664764 222.133102,391.732330 225.032242,389.767212 
	C227.360184,388.189270 228.964783,386.246277 228.653885,383.153381 
	C228.348419,380.114746 229.896866,377.664062 231.646530,375.412079 
	C241.981567,362.110077 247.735031,346.773926 251.657303,330.615784 
	C253.151642,324.459656 255.276459,318.522308 257.482147,312.585724 
	C263.925812,295.242981 278.136292,286.637604 293.959839,279.912109 
	C307.760895,274.046234 321.517700,268.192871 334.443787,260.445679 
	C342.242584,255.771530 351.026489,254.088852 360.247620,253.730148 
	C380.438049,252.944717 400.134644,254.615082 419.001068,262.482605 
	C424.453186,264.756226 430.001709,263.805267 434.915680,261.065033 
	C451.082581,252.049606 460.706543,238.656815 460.598083,219.614029 
	C460.515686,205.137817 461.607727,190.631561 459.740662,176.178940 
	C459.266907,172.511902 458.625275,168.852203 457.067963,165.581085 
	C453.292114,157.649765 452.933289,149.167343 452.769897,140.720337 
	C452.564301,130.092300 449.091949,121.359596 440.631592,114.554550 
	C434.868195,109.918785 428.668793,106.089195 422.126007,102.773819 
	C419.540009,101.463448 418.164673,99.616821 417.253143,96.888428 
	C412.206696,81.783157 409.170898,66.439621 409.503876,50.378258 
	C409.647614,43.444263 408.391907,36.457169 408.695038,29.457390 
	C408.870605,25.403465 409.153900,21.074455 413.438904,19.202820 
	C417.717865,17.333832 421.111755,20.042572 424.231873,22.645483 
	C427.197754,25.119741 429.766022,28.052137 431.673279,31.356184 
	C438.814362,43.727036 448.506805,54.093044 457.631561,64.905975 
	C461.641235,69.657486 465.102753,74.718781 467.194824,80.605743 
	C468.380524,83.942329 470.352081,86.412247 474.137482,85.609337 
	C489.433441,82.364983 505.044220,84.760094 520.411438,82.842529 
	C523.992737,82.395645 526.582153,81.077850 528.608154,78.010162 
	C533.935486,69.943787 541.079590,63.809727 549.380798,58.881023 
	C561.271667,51.821011 573.060425,44.596951 583.833984,35.841530 
	C587.778687,32.635796 592.314941,30.795128 597.523865,30.365349 
	C604.269165,29.808807 606.390076,32.160049 604.451416,38.860149 
	C602.005493,47.313499 598.459900,55.580181 598.502075,64.521278 
	C598.570068,78.957123 591.683044,89.923965 581.960388,99.621613 
	C575.848511,105.717758 568.131592,108.722046 559.927002,110.685364 
	C556.158142,111.587250 554.040466,112.919952 555.841003,117.570251 
	C557.451721,121.730286 556.083618,126.133835 554.438049,130.207321 
	C553.003784,133.757980 551.525391,137.299698 549.864014,140.747818 
	C547.123718,146.435013 546.459656,152.023224 549.083679,158.046600 
	C552.760803,166.487213 551.756287,174.944244 548.234192,183.242905 
	C546.031677,188.432449 542.719727,192.168289 536.844604,193.393097 
	C531.677246,194.470337 531.908020,198.688324 532.590942,202.566833 
	C533.742737,209.108139 535.337280,215.570404 536.551819,222.101959 
	C540.438232,243.002625 544.349976,263.838959 543.555481,285.338470 
	C542.713196,308.129303 546.398376,330.306793 554.109314,351.928314 
	C558.654419,364.672729 556.317871,377.870941 553.929504,390.907532 
	C551.968018,401.613831 549.240356,411.981750 544.349792,421.764069 
	C540.374146,429.716431 540.080688,438.524689 539.635559,447.110962 
	C538.438599,470.199005 535.171692,493.166962 535.403931,516.324768 
	C535.500854,525.988770 536.781372,535.569153 540.535950,544.621460 
	C543.190063,551.020508 543.517761,557.891663 542.078430,564.275513 
	C538.080811,582.005615 542.372803,598.921936 545.649231,616.033936 
	C550.836060,643.123352 556.816223,670.034912 563.193115,696.865845 
	C564.882019,703.971863 567.869507,710.350464 572.117615,716.213318 
	C575.257080,720.546082 578.059753,724.938416 578.684753,730.536804 
	C579.072754,734.013062 581.222961,736.999634 583.169067,739.931763 
	C586.484863,744.927917 589.805420,749.923462 592.981628,755.008179 
	C594.015930,756.663940 595.233521,758.797424 593.561401,760.526367 
	C591.989624,762.151428 589.782593,761.352600 587.942078,760.532837 
	C583.989380,758.772034 580.124329,756.812927 576.158813,755.082947 
	C568.231995,751.624756 567.195801,752.167236 565.227112,760.363770 
	C564.684326,762.623779 564.253235,764.938782 563.424805,767.095642 
	C561.983276,770.848572 559.194580,771.515320 556.622803,768.406982 
	C548.349304,758.407288 541.448120,747.912598 541.787048,733.957397 
	C542.359314,710.392090 539.690063,687.248352 532.978516,664.465759 
	C526.494202,642.454651 524.278503,619.482361 519.678040,597.030579 
	C518.705994,592.286682 517.372314,588.106140 512.789307,585.558350 
	C506.841400,582.251770 506.728790,576.087646 505.725006,570.383667 
	C505.092224,566.788086 504.722778,563.078125 503.533234,559.664124 
	C501.658905,554.284790 501.030884,548.958679 502.717926,543.528625 
	C503.887878,539.763062 502.949554,536.445068 501.651978,532.932617 
	C495.133881,515.288879 488.791077,497.580444 482.324768,479.917450 
	C481.613495,477.974609 481.357513,475.619110 478.936584,474.647278 
	C476.343719,475.492767 476.361877,477.974213 475.799957,479.911560 
	C469.395294,501.992798 466.069855,524.691467 462.472534,547.331116 
	C462.189514,549.112549 462.182922,551.042419 462.537811,552.804626 
	C466.388947,571.926575 464.806213,590.613708 457.293243,608.552124 
	C453.645599,617.261292 453.354523,626.326660 452.364838,635.377991 
	C451.967346,639.013306 451.527863,642.691956 451.673492,646.328186 
	C451.917389,652.417053 454.104645,657.810364 457.448486,663.049011 
	C464.247131,673.700256 470.746094,684.500549 479.301514,693.920349 
	C481.714966,696.577637 481.981995,699.493103 477.189026,700.213196 
	C474.066345,700.682434 473.223602,702.883240 473.109497,705.608765 
	C473.012512,707.926086 472.204834,709.763367 469.532074,709.117126 
	C461.971680,707.289185 454.231018,709.568848 446.411957,707.658264 
	C443.424164,713.280701 444.084320,719.413330 443.445709,725.209961 
	C441.605957,741.909241 440.126984,758.648865 441.084778,775.496704 
	C441.176514,777.110535 440.742889,778.824585 440.234528,780.388550 
	C438.924744,784.418213 436.446960,785.229187 433.023987,782.756165 
	C430.430145,780.882019 428.492859,778.378296 426.746368,775.701416 
	C423.345612,770.488892 422.476654,770.397217 417.381927,774.201111 
	C412.468140,777.869812 407.998932,782.221924 401.706268,783.695190 
	C396.367859,784.945068 394.983063,783.884277 396.698792,778.728210 
	C401.783386,763.447815 404.158264,747.479248 408.836212,732.082275 
	C410.741699,725.810608 411.049347,719.000427 411.633362,712.395325 
	C412.203064,705.952087 414.221100,700.177185 417.382874,694.562866 
	C425.585907,679.996887 425.090820,665.173523 417.165466,650.770935 
	C399.413452,618.510498 381.113037,586.561218 360.439453,556.048889 
	C357.553406,551.789368 354.163635,547.852905 350.822723,543.923645 
	C344.131165,536.053589 342.586914,526.990845 345.055664,517.320435 
	C345.885986,514.067932 348.179321,511.076324 350.220062,508.267761 
	C355.214111,501.394775 356.646454,493.856415 357.159424,485.393982 
	C357.802948,474.778351 355.834137,464.932617 352.779358,455.057770 
	C352.339111,453.634644 351.846252,452.194366 351.136810,450.893463 
	C346.583801,442.545197 341.521088,442.327026 336.565765,450.296600 
	C331.245026,458.853912 324.672821,466.267365 317.194946,473.030426 
	C303.934937,485.022858 292.646545,498.845856 281.399719,512.684937 
	C279.727936,514.742126 279.221649,517.028320 279.226562,519.642334 
	C279.242096,527.858826 276.979156,535.378235 272.095062,542.086426 
	C267.465515,548.444946 263.778168,555.323547 260.918518,562.668640 
	C254.697327,578.647949 248.508408,594.641846 242.059448,610.529602 
	C236.331192,624.641724 235.692734,639.318176 236.490860,654.213928 
	C237.854492,679.664001 238.704224,705.128540 238.272491,730.616638 
	C238.137558,738.582764 235.572296,739.769348 228.806519,735.429077 
	C227.264877,734.440063 225.781143,733.360168 224.231369,732.384705 
	C222.181274,731.094299 220.527740,731.177368 218.454895,732.947571 
	C212.014404,738.447693 207.122269,737.082397 203.777161,729.235962 
	C202.995438,727.402344 202.462051,725.270142 201.164963,723.882324 
	C195.575027,717.901306 196.212006,711.297913 198.752777,703.972168 
M407.954865,582.607483 
	C413.745605,594.359436 419.536316,606.111389 425.327026,617.863281 
	C425.974304,617.674561 426.621552,617.485779 427.268799,617.296997 
	C428.888977,612.685730 429.457794,607.940369 429.123779,602.930359 
	C428.579865,594.772156 424.140167,587.311035 426.448090,578.493958 
	C429.082153,568.431091 427.547424,557.596863 430.783875,547.490356 
	C432.976379,540.643616 432.672668,533.811829 431.205261,526.830139 
	C427.790466,510.582855 423.983734,494.421936 423.373199,477.668579 
	C423.177094,472.288696 423.498230,466.630035 421.570526,461.368622 
	C420.441345,458.286743 418.786011,455.355896 415.003479,455.504791 
	C411.213104,455.654053 410.556091,459.048798 409.707153,461.894135 
	C409.335999,463.138184 409.322479,464.534180 409.377808,465.851471 
	C409.526672,469.394897 408.872284,472.745209 407.801605,476.134827 
	C404.795471,485.651581 400.661224,494.822693 398.634979,504.628723 
	C397.171753,511.709930 394.788177,518.378601 391.449341,524.765808 
	C388.158264,531.061768 388.306610,537.623047 390.671661,544.121277 
	C395.406677,557.130859 401.617950,569.492126 407.954865,582.607483 
z"/>
</svg>