<?xml version="1.0" encoding="UTF-8"?>
<svg xmlns="http://www.w3.org/2000/svg" version="1.1" viewBox="0 0 16 24.8">
  <defs>
    <style>
      .cls-1 {
        fill: #040404;
      }
    </style>
  </defs>
  <!-- Generator: Adobe Illustrator 28.6.0, SVG Export Plug-In . SVG Version: 1.2.0 Build 709)  -->
  <g>
    <g id="Layer_1">
      <g id="Layer_1-2" data-name="Layer_1">
        <path id="gaz" class="cls-1" d="M10.1,1.8c.3.7.7,1.4,1,2,1.1,2.3,1.4,4.6,1,6.9,0,.5,0,1-.2,1.6,0,.3-.1.7-.3.9-.8.8-1.1,1.7-1.2,2.8-.2,2.2-.4,4.4-.2,6.5,0,.6.1,1.3.5,1.8.1,0,.1.3.2.5h-1.3c-.2-.4-.4-.7-.6-1.1,0,0-.1-.3,0-.4.3-.9.2-1.9,0-2.9,0-1-.2-2.1,0-3.1v-2.3c0-.3,0-.4-.4-.3-1.1.2-2.2,0-3.3-.3-.5,0-.9-.2-1.4-.3v1c0,.7,0,1.4-.2,2,0,.2,0,.5-.3.7-.4.8-.3,1.5,0,2.3.5,1,.9,1.9,1.4,2.9,0,0,0,.3.2.4.3.4.5.8.8,1.2h-1.2v-.3c0-.3,0-.7-.4-.9,0,0-.2-.3-.2-.5-.3-1.1-.7-2.1-1.4-3,0,0-.2-.2-.3-.3h0c0,.4,0,.7,0,1,.2.8.4,1.7.6,2.5,0,0,0,.2.2.4.2.4.4.7.6,1.1h-.5c-.5,0-.8-.2-.9-.6,0-.2,0-.3-.3-.4,0,0-.2-.2-.2-.3.1-1.2-.3-2.3-.8-3.4-.3-.6-.3-1,0-1.6.5-1,.4-2,.1-3,0,0,0-.2-.2-.2-1.1-1-1.1-2.4,0-3.3.8-.8,1.8-1.1,3-1.2.9,0,1.8,0,2.7-.2,2-.4,3.5-1.9,3.8-3.8.2-1.3.1-2.6-.7-3.8-.3-.4-.5-.7-1-.9-.2,0-.4-.3-.6-.5-.3-.3-.6-.4-1-.5-.4,0-.5-.4-.4-.7,0,0,0-.2.2-.2.7,0,1.4-.2,2.1-.2h2c0,.2-.2.4-.2.5,2.4,1.7,4.3,3.7,5.3,6.3-.4,0-.6-.2-.7-.4-1.1-1.8-2.6-3.3-4.3-4.6-.3-.2-.5-.3-.9-.5h0v.4Z"/>
      </g>
    </g>
  </g>
</svg>