<svg version="1.1" id="Layer_1" xmlns="http://www.w3.org/2000/svg" xmlns:xlink="http://www.w3.org/1999/xlink" x="0px" y="0px"
	 width="100%" viewBox="0 0 275 572" enable-background="new 0 0 275 572" xml:space="preserve">
<path fill="#FEFEFE" opacity="1.000000" stroke="none" 
	d="
M90.000000,573.000000 
	C60.000008,573.000000 30.500017,573.000000 1.000020,573.000000 
	C1.000013,382.333405 1.000013,191.666794 1.000007,1.000148 
	C92.666573,1.000098 184.333145,1.000098 275.999817,1.000049 
	C275.999878,191.666519 275.999878,382.333038 275.999939,572.999756 
	C214.166672,573.000000 152.333328,573.000000 90.000000,573.000000 
M220.211548,51.718273 
	C216.332321,58.031387 210.932709,61.281281 203.277435,61.190979 
	C196.145279,61.106850 190.363251,65.337379 188.112869,71.695732 
	C192.033340,73.596680 196.010101,75.524910 200.089462,77.502892 
	C199.575089,78.479042 199.067307,79.521362 198.491302,80.524498 
	C173.246704,124.487999 153.860153,170.821793 142.611771,220.346527 
	C140.004684,231.825058 138.296036,243.562759 137.053940,255.274521 
	C136.362061,261.798187 139.115433,267.712830 144.905701,272.310760 
	C145.367340,270.929504 145.688629,270.170776 145.875320,269.380219 
	C151.265411,246.556396 157.042221,223.814590 161.926071,200.882675 
	C169.075943,167.310806 180.207962,135.240463 196.377808,104.970421 
	C198.936157,100.181213 202.522278,95.941032 206.355133,90.404114 
	C206.958130,92.673248 207.143143,93.111755 207.184891,93.563515 
	C209.390182,117.430450 211.321304,141.326431 213.860764,165.157608 
	C215.891266,184.212296 218.486771,203.202042 216.972565,222.428833 
	C216.147415,232.906433 213.750320,243.055984 206.610626,251.040985 
	C193.282181,265.947449 177.935730,278.401215 159.181168,285.968964 
	C142.873474,292.549408 125.436539,293.548340 108.222015,294.908478 
	C83.648491,296.850067 62.352375,305.449097 45.019760,323.191650 
	C35.685764,332.746429 34.929775,337.915131 40.858807,349.972137 
	C44.524677,357.426819 48.677864,364.680481 51.805759,372.353180 
	C58.768333,389.432526 61.002213,407.665375 64.277122,425.669037 
	C66.093773,435.656006 66.255829,444.618988 59.522320,453.048553 
	C58.216503,454.683289 58.448349,459.233032 59.814453,461.058502 
	C76.290283,483.074371 88.526123,506.980133 94.155960,534.084290 
	C94.522751,535.850037 96.289307,537.720703 97.907570,538.758545 
	C103.279778,542.203979 108.095535,545.695068 107.377144,553.211060 
	C107.264687,554.387634 109.221977,556.903870 110.131294,556.861267 
	C120.191902,556.389648 130.234558,555.534912 140.580917,554.761475 
	C139.177948,543.455017 134.110855,535.734070 126.459167,529.173035 
	C122.757904,525.999390 119.343132,522.081177 116.972343,517.843506 
	C109.996880,505.375000 103.551254,492.607483 97.024994,479.891937 
	C95.054413,476.052490 93.481285,472.007782 91.754784,468.044617 
	C87.613213,458.537659 87.722237,449.053497 91.597351,439.446686 
	C94.831810,431.428070 98.384010,423.456970 100.677223,415.155945 
	C105.585075,397.390320 104.251823,379.153717 103.453812,361.013062 
	C103.331825,358.240051 103.088066,355.472412 102.818977,351.495483 
	C134.401901,357.180817 165.142792,366.326508 196.217026,357.385315 
	C197.208496,365.878113 197.950027,373.807312 199.098495,381.677124 
	C200.610062,392.035095 202.955826,402.293579 204.022308,412.689331 
	C205.905441,431.045441 207.142487,449.469086 208.557953,467.871552 
	C210.063660,487.447327 211.389847,507.037323 212.998245,526.604370 
	C213.203766,529.104431 214.021194,532.054260 215.620544,533.843384 
	C219.921112,538.654297 221.775299,543.829895 220.982254,550.281738 
	C220.788971,551.854187 222.371872,554.874023 223.649918,555.195923 
	C231.120682,557.077271 238.691483,557.208740 247.340622,554.353638 
	C245.127640,549.944763 243.058838,546.070496 241.217621,542.091003 
	C239.011597,537.322998 236.260376,532.646973 235.023422,527.616821 
	C226.720932,493.854065 224.289749,459.248749 221.064636,424.784302 
	C220.266403,416.254089 220.354568,407.489624 221.338165,398.983521 
	C222.481186,389.098846 224.949112,379.356689 227.038498,369.594757 
	C229.955841,355.964661 231.267349,341.648407 236.433334,328.910339 
	C248.762054,298.510773 252.323517,266.639252 253.531204,234.628998 
	C254.186829,217.251160 250.389679,199.530426 247.182220,182.227371 
	C243.428436,161.977158 238.148468,142.009033 233.497833,121.926109 
	C227.462631,95.864098 233.216858,72.462166 249.336258,51.382183 
	C251.865173,48.075020 254.830338,45.008095 256.790070,41.394234 
	C257.956329,39.243557 258.405121,35.958347 257.650085,33.691673 
	C256.602966,30.548241 254.121582,27.882584 251.979813,24.590420 
	C250.602310,25.519470 249.187408,26.316347 247.952759,27.332268 
	C240.533875,33.436779 233.120193,39.548870 225.789841,45.758839 
	C223.900253,47.359619 222.316269,49.321117 220.211548,51.718273 
z"/>
<path fill="#040404" opacity="1.000000" stroke="none" 
	d="
M220.401733,51.417587 
	C222.316269,49.321117 223.900253,47.359619 225.789841,45.758839 
	C233.120193,39.548870 240.533875,33.436779 247.952759,27.332268 
	C249.187408,26.316347 250.602310,25.519470 251.979813,24.590420 
	C254.121582,27.882584 256.602966,30.548241 257.650085,33.691673 
	C258.405121,35.958347 257.956329,39.243557 256.790070,41.394234 
	C254.830338,45.008095 251.865173,48.075020 249.336258,51.382183 
	C233.216858,72.462166 227.462631,95.864098 233.497833,121.926109 
	C238.148468,142.009033 243.428436,161.977158 247.182220,182.227371 
	C250.389679,199.530426 254.186829,217.251160 253.531204,234.628998 
	C252.323517,266.639252 248.762054,298.510773 236.433334,328.910339 
	C231.267349,341.648407 229.955841,355.964661 227.038498,369.594757 
	C224.949112,379.356689 222.481186,389.098846 221.338165,398.983521 
	C220.354568,407.489624 220.266403,416.254089 221.064636,424.784302 
	C224.289749,459.248749 226.720932,493.854065 235.023422,527.616821 
	C236.260376,532.646973 239.011597,537.322998 241.217621,542.091003 
	C243.058838,546.070496 245.127640,549.944763 247.340622,554.353638 
	C238.691483,557.208740 231.120682,557.077271 223.649918,555.195923 
	C222.371872,554.874023 220.788971,551.854187 220.982254,550.281738 
	C221.775299,543.829895 219.921112,538.654297 215.620544,533.843384 
	C214.021194,532.054260 213.203766,529.104431 212.998245,526.604370 
	C211.389847,507.037323 210.063660,487.447327 208.557953,467.871552 
	C207.142487,449.469086 205.905441,431.045441 204.022308,412.689331 
	C202.955826,402.293579 200.610062,392.035095 199.098495,381.677124 
	C197.950027,373.807312 197.208496,365.878113 196.217026,357.385315 
	C165.142792,366.326508 134.401901,357.180817 102.818977,351.495483 
	C103.088066,355.472412 103.331825,358.240051 103.453812,361.013062 
	C104.251823,379.153717 105.585075,397.390320 100.677223,415.155945 
	C98.384010,423.456970 94.831810,431.428070 91.597351,439.446686 
	C87.722237,449.053497 87.613213,458.537659 91.754784,468.044617 
	C93.481285,472.007782 95.054413,476.052490 97.024994,479.891937 
	C103.551254,492.607483 109.996880,505.375000 116.972343,517.843506 
	C119.343132,522.081177 122.757904,525.999390 126.459167,529.173035 
	C134.110855,535.734070 139.177948,543.455017 140.580917,554.761475 
	C130.234558,555.534912 120.191902,556.389648 110.131294,556.861267 
	C109.221977,556.903870 107.264687,554.387634 107.377144,553.211060 
	C108.095535,545.695068 103.279778,542.203979 97.907570,538.758545 
	C96.289307,537.720703 94.522751,535.850037 94.155960,534.084290 
	C88.526123,506.980133 76.290283,483.074371 59.814453,461.058502 
	C58.448349,459.233032 58.216503,454.683289 59.522320,453.048553 
	C66.255829,444.618988 66.093773,435.656006 64.277122,425.669037 
	C61.002213,407.665375 58.768333,389.432526 51.805759,372.353180 
	C48.677864,364.680481 44.524677,357.426819 40.858807,349.972137 
	C34.929775,337.915131 35.685764,332.746429 45.019760,323.191650 
	C62.352375,305.449097 83.648491,296.850067 108.222015,294.908478 
	C125.436539,293.548340 142.873474,292.549408 159.181168,285.968964 
	C177.935730,278.401215 193.282181,265.947449 206.610626,251.040985 
	C213.750320,243.055984 216.147415,232.906433 216.972565,222.428833 
	C218.486771,203.202042 215.891266,184.212296 213.860764,165.157608 
	C211.321304,141.326431 209.390182,117.430450 207.184891,93.563515 
	C207.143143,93.111755 206.958130,92.673248 206.355133,90.404114 
	C202.522278,95.941032 198.936157,100.181213 196.377808,104.970421 
	C180.207962,135.240463 169.075943,167.310806 161.926071,200.882675 
	C157.042221,223.814590 151.265411,246.556396 145.875320,269.380219 
	C145.688629,270.170776 145.367340,270.929504 144.905701,272.310760 
	C139.115433,267.712830 136.362061,261.798187 137.053940,255.274521 
	C138.296036,243.562759 140.004684,231.825058 142.611771,220.346527 
	C153.860153,170.821793 173.246704,124.487999 198.491302,80.524498 
	C199.067307,79.521362 199.575089,78.479042 200.089462,77.502892 
	C196.010101,75.524910 192.033340,73.596680 188.112869,71.695732 
	C190.363251,65.337379 196.145279,61.106850 203.277435,61.190979 
	C210.932709,61.281281 216.332321,58.031387 220.401733,51.417587 
z"/>
</svg>